<?xml version="1.0" ?><svg id="Layer_1" style="enable-background:new 0 0 128 128;" version="1.1" viewBox="0 0 128 128" xml:space="preserve" xmlns="http://www.w3.org/2000/svg" xmlns:xlink="http://www.w3.org/1999/xlink"><style type="text/css">
	.st0{fill:#267CB5;}
	.st1{fill:#FFFFFF;}
</style><g><circle class="st0" cx="64" cy="64" r="64"/></g><path class="st1" d="M85,50h-5v-8c0-8.8-7.2-16-16-16s-16,7.2-16,16v8h-5c-2.2,0-4,1.8-4,4v42c0,2.2,1.8,4,4,4h42c2.2,0,4-1.8,4-4  V54C89,51.8,87.2,50,85,50z M70,84.5H58l3.2-8.2c-1.9-1-3.2-3-3.2-5.3c0-3.3,2.7-6,6-6c3.3,0,6,2.7,6,6c0,2.3-1.3,4.3-3.2,5.3  L70,84.5z M76,50H52v-8c0-6.6,5.4-12,12-12s12,5.4,12,12V50z"/></svg>