<svg xmlns="http://www.w3.org/2000/svg" viewBox="0 0 24 24" width="512" height="512" style="fill: rgb(41, 128, 185);">
    <path d="M12,2C6.5,2,2,6.5,2,12c0,3.7,2.1,7,5.1,8.7C7.7,21,8.3,21.3,9,21.5l2.4-6.6c-0.7-0.2-1.3-0.6-1.7-1.1C9.2,13.3,9,12.7,9,12 c0-1.7,1.3-3,3-3s3,1.3,3,3c0,0.7-0.2,1.3-0.6,1.8c-0.4,0.5-1,1-1.7,1.1l2.4,6.6c0.6-0.2,1.3-0.5,1.8-0.8c3.1-1.7,5.1-5,5.1-8.7 C22,6.5,17.5,2,12,2z M16.2,18.8l-1.1-2.9C16.3,15,17,13.6,17,12c0-2.8-2.2-5-5-5s-5,2.2-5,5c0,1.6,0.7,3,1.9,3.9l-1.1,2.9 C5.5,17.4,4,14.9,4,12c0-4.4,3.6-8,8-8s8,3.6,8,8C20,14.9,18.5,17.4,16.2,18.8z"/>
</svg>